<mxfile host="app.diagrams.net" modified="2023-12-25T21:57:10.288Z" agent="Mozilla/5.0 (Macintosh; Intel Mac OS X 10.15; rv:121.0) Gecko/20100101 Firefox/121.0" etag="sIwNStiJ5BKHVQlARDe8" version="22.1.11" type="google" pages="6">
  <diagram id="zNWnWLM_SQpyI5XCdFXj" name="er">
    <mxGraphModel grid="1" page="1" gridSize="10" guides="1" tooltips="1" connect="1" arrows="1" fold="1" pageScale="1" pageWidth="827" pageHeight="1169" math="0" shadow="0">
      <root>
        <mxCell id="0" />
        <mxCell id="1" parent="0" />
        <mxCell id="DKtn1Y9z42TyWMAz9eqJ-1" value="EmploeeAccount" style="rounded=0;whiteSpace=wrap;html=1;" vertex="1" parent="1">
          <mxGeometry x="120" y="91.75" width="120" height="60" as="geometry" />
        </mxCell>
        <mxCell id="DKtn1Y9z42TyWMAz9eqJ-2" value="" style="strokeWidth=2;html=1;shape=mxgraph.flowchart.annotation_2;align=left;labelPosition=right;pointerEvents=1;direction=west;" vertex="1" parent="1">
          <mxGeometry x="-20" y="-11.75" width="140" height="275" as="geometry" />
        </mxCell>
        <mxCell id="DKtn1Y9z42TyWMAz9eqJ-20" style="edgeStyle=orthogonalEdgeStyle;rounded=0;orthogonalLoop=1;jettySize=auto;html=1;exitX=0.5;exitY=1;exitDx=0;exitDy=0;endArrow=none;endFill=0;" edge="1" parent="1" source="DKtn1Y9z42TyWMAz9eqJ-3" target="DKtn1Y9z42TyWMAz9eqJ-21">
          <mxGeometry relative="1" as="geometry">
            <mxPoint x="430" y="80" as="targetPoint" />
            <Array as="points">
              <mxPoint x="350" y="40" />
              <mxPoint x="520" y="40" />
            </Array>
          </mxGeometry>
        </mxCell>
        <mxCell id="DKtn1Y9z42TyWMAz9eqJ-3" value="Account" style="rounded=0;whiteSpace=wrap;html=1;" vertex="1" parent="1">
          <mxGeometry x="290" y="-81.88" width="120" height="60" as="geometry" />
        </mxCell>
        <mxCell id="DKtn1Y9z42TyWMAz9eqJ-4" value="HRAccount" style="rounded=0;whiteSpace=wrap;html=1;" vertex="1" parent="1">
          <mxGeometry x="460" y="128" width="120" height="60" as="geometry" />
        </mxCell>
        <mxCell id="DKtn1Y9z42TyWMAz9eqJ-6" value="dateOfMedDirectionExp" style="ellipse;whiteSpace=wrap;html=1;" vertex="1" parent="1">
          <mxGeometry x="-100" y="-1.25" width="140" height="36.25" as="geometry" />
        </mxCell>
        <mxCell id="DKtn1Y9z42TyWMAz9eqJ-7" value="MedDirection" style="ellipse;whiteSpace=wrap;html=1;" vertex="1" parent="1">
          <mxGeometry x="-100" y="42.879999999999995" width="140" height="36.25" as="geometry" />
        </mxCell>
        <mxCell id="DKtn1Y9z42TyWMAz9eqJ-9" value="certMedBook" style="ellipse;whiteSpace=wrap;html=1;" vertex="1" parent="1">
          <mxGeometry x="-100" y="167" width="140" height="36.25" as="geometry" />
        </mxCell>
        <mxCell id="DKtn1Y9z42TyWMAz9eqJ-10" value="certMedDirection" style="ellipse;whiteSpace=wrap;html=1;" vertex="1" parent="1">
          <mxGeometry x="-100" y="87" width="140" height="36.25" as="geometry" />
        </mxCell>
        <mxCell id="DKtn1Y9z42TyWMAz9eqJ-11" value="MedBook" style="ellipse;whiteSpace=wrap;html=1;" vertex="1" parent="1">
          <mxGeometry x="-100" y="126.75" width="140" height="36.25" as="geometry" />
        </mxCell>
        <mxCell id="DKtn1Y9z42TyWMAz9eqJ-12" value="" style="strokeWidth=2;html=1;shape=mxgraph.flowchart.annotation_2;align=left;labelPosition=right;pointerEvents=1;" vertex="1" parent="1">
          <mxGeometry x="410" y="-100" width="50" height="100" as="geometry" />
        </mxCell>
        <mxCell id="DKtn1Y9z42TyWMAz9eqJ-13" value="login" style="ellipse;whiteSpace=wrap;html=1;" vertex="1" parent="1">
          <mxGeometry x="440" y="-91.88" width="140" height="36.25" as="geometry" />
        </mxCell>
        <mxCell id="DKtn1Y9z42TyWMAz9eqJ-14" value="password" style="ellipse;whiteSpace=wrap;html=1;" vertex="1" parent="1">
          <mxGeometry x="440" y="-48.129999999999995" width="140" height="36.25" as="geometry" />
        </mxCell>
        <mxCell id="DKtn1Y9z42TyWMAz9eqJ-17" style="edgeStyle=orthogonalEdgeStyle;rounded=0;orthogonalLoop=1;jettySize=auto;html=1;exitX=0.5;exitY=1;exitDx=0;exitDy=0;exitPerimeter=0;endArrow=none;endFill=0;" edge="1" parent="1" source="DKtn1Y9z42TyWMAz9eqJ-15" target="DKtn1Y9z42TyWMAz9eqJ-1">
          <mxGeometry relative="1" as="geometry" />
        </mxCell>
        <mxCell id="DKtn1Y9z42TyWMAz9eqJ-15" value="" style="strokeWidth=2;html=1;shape=mxgraph.flowchart.decision;whiteSpace=wrap;" vertex="1" parent="1">
          <mxGeometry x="160" y="21.880000000000003" width="40" height="40" as="geometry" />
        </mxCell>
        <mxCell id="DKtn1Y9z42TyWMAz9eqJ-16" style="edgeStyle=orthogonalEdgeStyle;rounded=0;orthogonalLoop=1;jettySize=auto;html=1;exitX=0;exitY=0.5;exitDx=0;exitDy=0;entryX=0.5;entryY=0;entryDx=0;entryDy=0;entryPerimeter=0;endFill=0;anchorPointDirection=0;endArrow=none;" edge="1" parent="1" source="DKtn1Y9z42TyWMAz9eqJ-3" target="DKtn1Y9z42TyWMAz9eqJ-15">
          <mxGeometry relative="1" as="geometry" />
        </mxCell>
        <mxCell id="DKtn1Y9z42TyWMAz9eqJ-18" value="1" style="text;html=1;align=center;verticalAlign=middle;resizable=0;points=[];autosize=1;strokeColor=none;fillColor=none;" vertex="1" parent="1">
          <mxGeometry x="145" y="-12" width="30" height="30" as="geometry" />
        </mxCell>
        <mxCell id="DKtn1Y9z42TyWMAz9eqJ-19" value="1" style="text;html=1;align=center;verticalAlign=middle;resizable=0;points=[];autosize=1;strokeColor=none;fillColor=none;" vertex="1" parent="1">
          <mxGeometry x="185" y="58" width="30" height="30" as="geometry" />
        </mxCell>
        <mxCell id="DKtn1Y9z42TyWMAz9eqJ-22" style="edgeStyle=orthogonalEdgeStyle;rounded=0;orthogonalLoop=1;jettySize=auto;html=1;exitX=0.5;exitY=1;exitDx=0;exitDy=0;exitPerimeter=0;entryX=0.5;entryY=0;entryDx=0;entryDy=0;endArrow=none;endFill=0;" edge="1" parent="1" source="DKtn1Y9z42TyWMAz9eqJ-21" target="DKtn1Y9z42TyWMAz9eqJ-4">
          <mxGeometry relative="1" as="geometry" />
        </mxCell>
        <mxCell id="DKtn1Y9z42TyWMAz9eqJ-21" value="" style="strokeWidth=2;html=1;shape=mxgraph.flowchart.decision;whiteSpace=wrap;" vertex="1" parent="1">
          <mxGeometry x="500" y="67.88" width="40" height="40" as="geometry" />
        </mxCell>
        <mxCell id="DKtn1Y9z42TyWMAz9eqJ-23" value="1" style="text;html=1;align=center;verticalAlign=middle;resizable=0;points=[];autosize=1;strokeColor=none;fillColor=none;" vertex="1" parent="1">
          <mxGeometry x="525" y="38" width="30" height="30" as="geometry" />
        </mxCell>
        <mxCell id="DKtn1Y9z42TyWMAz9eqJ-24" value="1" style="text;html=1;align=center;verticalAlign=middle;resizable=0;points=[];autosize=1;strokeColor=none;fillColor=none;" vertex="1" parent="1">
          <mxGeometry x="545" y="98" width="30" height="30" as="geometry" />
        </mxCell>
        <mxCell id="DKtn1Y9z42TyWMAz9eqJ-25" value="" style="strokeWidth=2;html=1;shape=mxgraph.flowchart.annotation_2;align=left;labelPosition=right;pointerEvents=1;" vertex="1" parent="1">
          <mxGeometry x="580" y="112" width="50" height="100" as="geometry" />
        </mxCell>
        <mxCell id="DKtn1Y9z42TyWMAz9eqJ-26" value="private_key" style="ellipse;whiteSpace=wrap;html=1;" vertex="1" parent="1">
          <mxGeometry x="610" y="143.88" width="140" height="36.25" as="geometry" />
        </mxCell>
        <mxCell id="DKtn1Y9z42TyWMAz9eqJ-28" value="MedOrganization" style="rounded=0;whiteSpace=wrap;html=1;" vertex="1" parent="1">
          <mxGeometry x="260" y="228.25" width="120" height="60" as="geometry" />
        </mxCell>
        <mxCell id="DKtn1Y9z42TyWMAz9eqJ-29" value="" style="strokeWidth=2;html=1;shape=mxgraph.flowchart.annotation_2;align=left;labelPosition=right;pointerEvents=1;" vertex="1" parent="1">
          <mxGeometry x="380" y="208.25" width="50" height="100" as="geometry" />
        </mxCell>
        <mxCell id="DKtn1Y9z42TyWMAz9eqJ-31" value="public_key" style="ellipse;whiteSpace=wrap;html=1;" vertex="1" parent="1">
          <mxGeometry x="415" y="240" width="140" height="36.25" as="geometry" />
        </mxCell>
        <mxCell id="DKtn1Y9z42TyWMAz9eqJ-32" value="dateOfMedBookExp" style="ellipse;whiteSpace=wrap;html=1;" vertex="1" parent="1">
          <mxGeometry x="-100" y="215" width="140" height="36.25" as="geometry" />
        </mxCell>
      </root>
    </mxGraphModel>
  </diagram>
  <diagram id="qBughdiJfub5CYhiEhPc" name="use-case">
    <mxGraphModel dx="2046" dy="645" grid="1" gridSize="10" guides="1" tooltips="1" connect="1" arrows="1" fold="1" page="1" pageScale="1" pageWidth="827" pageHeight="1169" math="0" shadow="0">
      <root>
        <mxCell id="0" />
        <mxCell id="1" parent="0" />
        <mxCell id="lGXDpD2uLwVDQQfyLAfZ-14" style="rounded=0;orthogonalLoop=1;jettySize=auto;html=1;exitX=0.5;exitY=0.5;exitDx=0;exitDy=0;exitPerimeter=0;entryX=1;entryY=0.5;entryDx=0;entryDy=0;" edge="1" parent="1" source="lGXDpD2uLwVDQQfyLAfZ-1" target="lGXDpD2uLwVDQQfyLAfZ-12">
          <mxGeometry relative="1" as="geometry" />
        </mxCell>
        <mxCell id="lGXDpD2uLwVDQQfyLAfZ-19" style="rounded=0;orthogonalLoop=1;jettySize=auto;html=1;exitX=0.5;exitY=0.5;exitDx=0;exitDy=0;exitPerimeter=0;" edge="1" parent="1" source="lGXDpD2uLwVDQQfyLAfZ-1" target="lGXDpD2uLwVDQQfyLAfZ-18">
          <mxGeometry relative="1" as="geometry" />
        </mxCell>
        <mxCell id="lGXDpD2uLwVDQQfyLAfZ-21" style="rounded=0;orthogonalLoop=1;jettySize=auto;html=1;exitX=0.5;exitY=0.5;exitDx=0;exitDy=0;exitPerimeter=0;" edge="1" parent="1" source="lGXDpD2uLwVDQQfyLAfZ-1" target="lGXDpD2uLwVDQQfyLAfZ-20">
          <mxGeometry relative="1" as="geometry" />
        </mxCell>
        <mxCell id="lGXDpD2uLwVDQQfyLAfZ-1" value="Сотрудник" style="shape=umlActor;verticalLabelPosition=bottom;verticalAlign=top;html=1;outlineConnect=0;" vertex="1" parent="1">
          <mxGeometry x="430" y="20" width="30" height="60" as="geometry" />
        </mxCell>
        <mxCell id="lGXDpD2uLwVDQQfyLAfZ-6" style="rounded=0;orthogonalLoop=1;jettySize=auto;html=1;exitX=0.5;exitY=0.5;exitDx=0;exitDy=0;exitPerimeter=0;entryX=0;entryY=0.5;entryDx=0;entryDy=0;" edge="1" parent="1" source="lGXDpD2uLwVDQQfyLAfZ-4" target="lGXDpD2uLwVDQQfyLAfZ-5">
          <mxGeometry relative="1" as="geometry" />
        </mxCell>
        <mxCell id="lGXDpD2uLwVDQQfyLAfZ-9" style="rounded=0;orthogonalLoop=1;jettySize=auto;html=1;exitX=0.5;exitY=0.5;exitDx=0;exitDy=0;exitPerimeter=0;" edge="1" parent="1" source="lGXDpD2uLwVDQQfyLAfZ-4" target="lGXDpD2uLwVDQQfyLAfZ-8">
          <mxGeometry relative="1" as="geometry" />
        </mxCell>
        <mxCell id="lGXDpD2uLwVDQQfyLAfZ-13" style="rounded=0;orthogonalLoop=1;jettySize=auto;html=1;exitX=0.5;exitY=0.5;exitDx=0;exitDy=0;exitPerimeter=0;entryX=0;entryY=0.5;entryDx=0;entryDy=0;" edge="1" parent="1" source="lGXDpD2uLwVDQQfyLAfZ-4" target="lGXDpD2uLwVDQQfyLAfZ-12">
          <mxGeometry relative="1" as="geometry" />
        </mxCell>
        <mxCell id="lGXDpD2uLwVDQQfyLAfZ-17" style="rounded=0;orthogonalLoop=1;jettySize=auto;html=1;exitX=0.5;exitY=0.5;exitDx=0;exitDy=0;exitPerimeter=0;entryX=0;entryY=0;entryDx=0;entryDy=0;" edge="1" parent="1" source="lGXDpD2uLwVDQQfyLAfZ-4" target="lGXDpD2uLwVDQQfyLAfZ-16">
          <mxGeometry relative="1" as="geometry" />
        </mxCell>
        <mxCell id="lGXDpD2uLwVDQQfyLAfZ-4" value="Работодатель" style="shape=umlActor;verticalLabelPosition=bottom;verticalAlign=top;html=1;outlineConnect=0;" vertex="1" parent="1">
          <mxGeometry x="60" y="130" width="30" height="60" as="geometry" />
        </mxCell>
        <mxCell id="lGXDpD2uLwVDQQfyLAfZ-5" value="регистрация в системе" style="ellipse;whiteSpace=wrap;html=1;" vertex="1" parent="1">
          <mxGeometry x="190" width="110" height="80" as="geometry" />
        </mxCell>
        <mxCell id="lGXDpD2uLwVDQQfyLAfZ-7" style="rounded=0;orthogonalLoop=1;jettySize=auto;html=1;entryX=1;entryY=0.5;entryDx=0;entryDy=0;exitX=0.5;exitY=0.5;exitDx=0;exitDy=0;exitPerimeter=0;" edge="1" parent="1" source="lGXDpD2uLwVDQQfyLAfZ-1" target="lGXDpD2uLwVDQQfyLAfZ-5">
          <mxGeometry relative="1" as="geometry">
            <mxPoint x="85" y="170" as="sourcePoint" />
            <mxPoint x="180" y="70" as="targetPoint" />
          </mxGeometry>
        </mxCell>
        <mxCell id="lGXDpD2uLwVDQQfyLAfZ-8" value="подписать направление на медосмотр" style="ellipse;whiteSpace=wrap;html=1;" vertex="1" parent="1">
          <mxGeometry x="-110" y="40" width="120" height="80" as="geometry" />
        </mxCell>
        <mxCell id="lGXDpD2uLwVDQQfyLAfZ-10" value="&lt;div&gt;загрузить подписанное&lt;/div&gt;&lt;div&gt;направление в личный кабинет сотрудника&lt;/div&gt;" style="ellipse;whiteSpace=wrap;html=1;" vertex="1" parent="1">
          <mxGeometry x="-90" y="220" width="120" height="80" as="geometry" />
        </mxCell>
        <mxCell id="lGXDpD2uLwVDQQfyLAfZ-11" style="rounded=0;orthogonalLoop=1;jettySize=auto;html=1;exitX=0.5;exitY=0.5;exitDx=0;exitDy=0;exitPerimeter=0;entryX=0.5;entryY=0;entryDx=0;entryDy=0;" edge="1" parent="1" source="lGXDpD2uLwVDQQfyLAfZ-4" target="lGXDpD2uLwVDQQfyLAfZ-10">
          <mxGeometry relative="1" as="geometry" />
        </mxCell>
        <mxCell id="lGXDpD2uLwVDQQfyLAfZ-12" value="вход в систему" style="ellipse;whiteSpace=wrap;html=1;" vertex="1" parent="1">
          <mxGeometry x="190" y="110" width="110" height="80" as="geometry" />
        </mxCell>
        <mxCell id="lGXDpD2uLwVDQQfyLAfZ-16" value="получить информацию о медкнижках всех сотрудников" style="ellipse;whiteSpace=wrap;html=1;" vertex="1" parent="1">
          <mxGeometry x="150" y="220" width="120" height="80" as="geometry" />
        </mxCell>
        <mxCell id="lGXDpD2uLwVDQQfyLAfZ-18" value="&lt;div&gt;загрузить подписанную&lt;/div&gt;&lt;div&gt;медкнижку после медосмотра&lt;/div&gt;" style="ellipse;whiteSpace=wrap;html=1;" vertex="1" parent="1">
          <mxGeometry x="359" y="160" width="110" height="80" as="geometry" />
        </mxCell>
        <mxCell id="lGXDpD2uLwVDQQfyLAfZ-20" value="получить информацию о медкнижке и направлениях" style="ellipse;whiteSpace=wrap;html=1;" vertex="1" parent="1">
          <mxGeometry x="570" y="60" width="110" height="80" as="geometry" />
        </mxCell>
      </root>
    </mxGraphModel>
  </diagram>
  <diagram id="YQqVfYTZsKW1jZW6Bcn_" name="structure">
    <mxGraphModel grid="1" page="1" gridSize="10" guides="1" tooltips="1" connect="1" arrows="1" fold="1" pageScale="1" pageWidth="827" pageHeight="1169" math="0" shadow="0">
      <root>
        <mxCell id="0" />
        <mxCell id="1" parent="0" />
        <mxCell id="rEIa9SSDzJFT5u2rZajr-1" value="&lt;div style=&quot;font-size: 16px;&quot;&gt;&amp;lt;&amp;lt;Компонент&amp;gt;&amp;gt;&amp;nbsp; &lt;b style=&quot;font-size: 16px;&quot;&gt;&lt;br style=&quot;font-size: 16px;&quot;&gt;&lt;/b&gt;&lt;/div&gt;&lt;div style=&quot;font-size: 16px;&quot;&gt;&lt;b style=&quot;font-size: 16px;&quot;&gt;Логика&lt;/b&gt;&lt;/div&gt;" style="html=1;dropTarget=0;fontSize=16;" vertex="1" parent="1">
          <mxGeometry x="340" y="220" width="180" height="90" as="geometry" />
        </mxCell>
        <mxCell id="rEIa9SSDzJFT5u2rZajr-2" value="" style="shape=module;jettyWidth=8;jettyHeight=4;fontSize=16;" vertex="1" parent="rEIa9SSDzJFT5u2rZajr-1">
          <mxGeometry x="1" width="20" height="20" relative="1" as="geometry">
            <mxPoint x="-27" y="7" as="offset" />
          </mxGeometry>
        </mxCell>
        <mxCell id="rEIa9SSDzJFT5u2rZajr-3" value="&amp;lt;&amp;lt;Компонент&amp;gt;&amp;gt;&amp;nbsp;&amp;nbsp;&lt;br style=&quot;font-size: 16px;&quot;&gt;&lt;b style=&quot;font-size: 16px;&quot;&gt;Отображение данных&lt;/b&gt;" style="html=1;dropTarget=0;fontSize=16;" vertex="1" parent="1">
          <mxGeometry x="580" y="220" width="180" height="90" as="geometry" />
        </mxCell>
        <mxCell id="rEIa9SSDzJFT5u2rZajr-4" value="" style="shape=module;jettyWidth=8;jettyHeight=4;fontSize=16;" vertex="1" parent="rEIa9SSDzJFT5u2rZajr-3">
          <mxGeometry x="1" width="20" height="20" relative="1" as="geometry">
            <mxPoint x="-27" y="7" as="offset" />
          </mxGeometry>
        </mxCell>
        <mxCell id="rEIa9SSDzJFT5u2rZajr-5" value="&amp;lt;&amp;lt;Компонент&amp;gt;&amp;gt;&amp;nbsp;&lt;br style=&quot;font-size: 16px;&quot;&gt;&lt;b style=&quot;font-size: 16px;&quot;&gt;Доступ к данным&lt;/b&gt;" style="html=1;dropTarget=0;fontSize=16;" vertex="1" parent="1">
          <mxGeometry x="100" y="220" width="180" height="90" as="geometry" />
        </mxCell>
        <mxCell id="rEIa9SSDzJFT5u2rZajr-6" value="" style="shape=module;jettyWidth=8;jettyHeight=4;fontSize=16;" vertex="1" parent="rEIa9SSDzJFT5u2rZajr-5">
          <mxGeometry x="1" width="20" height="20" relative="1" as="geometry">
            <mxPoint x="-27" y="7" as="offset" />
          </mxGeometry>
        </mxCell>
        <mxCell id="rEIa9SSDzJFT5u2rZajr-7" value="" style="rounded=0;orthogonalLoop=1;jettySize=auto;html=1;endArrow=none;endFill=0;sketch=0;sourcePerimeterSpacing=0;targetPerimeterSpacing=0;exitX=1;exitY=0.5;exitDx=0;exitDy=0;fontSize=16;" edge="1" parent="1" source="rEIa9SSDzJFT5u2rZajr-5" target="rEIa9SSDzJFT5u2rZajr-9">
          <mxGeometry relative="1" as="geometry">
            <mxPoint x="290" y="265" as="sourcePoint" />
          </mxGeometry>
        </mxCell>
        <mxCell id="rEIa9SSDzJFT5u2rZajr-8" value="" style="rounded=0;orthogonalLoop=1;jettySize=auto;html=1;endArrow=halfCircle;endFill=0;endSize=6;strokeWidth=1;sketch=0;exitX=0;exitY=0.5;exitDx=0;exitDy=0;fontSize=16;" edge="1" parent="1" source="rEIa9SSDzJFT5u2rZajr-1">
          <mxGeometry relative="1" as="geometry">
            <mxPoint x="330" y="265" as="sourcePoint" />
            <mxPoint x="310" y="265" as="targetPoint" />
          </mxGeometry>
        </mxCell>
        <mxCell id="rEIa9SSDzJFT5u2rZajr-9" value="" style="ellipse;whiteSpace=wrap;html=1;align=center;aspect=fixed;resizable=0;points=[];outlineConnect=0;sketch=0;fontSize=16;" vertex="1" parent="1">
          <mxGeometry x="304" y="260" width="10" height="10" as="geometry" />
        </mxCell>
        <mxCell id="rEIa9SSDzJFT5u2rZajr-10" value="" style="rounded=0;orthogonalLoop=1;jettySize=auto;html=1;endArrow=none;endFill=0;sketch=0;sourcePerimeterSpacing=0;targetPerimeterSpacing=0;exitX=1;exitY=0.5;exitDx=0;exitDy=0;fontSize=16;" edge="1" parent="1" source="rEIa9SSDzJFT5u2rZajr-1" target="rEIa9SSDzJFT5u2rZajr-12">
          <mxGeometry relative="1" as="geometry">
            <mxPoint x="550" y="195" as="sourcePoint" />
          </mxGeometry>
        </mxCell>
        <mxCell id="rEIa9SSDzJFT5u2rZajr-11" value="" style="rounded=0;orthogonalLoop=1;jettySize=auto;html=1;endArrow=halfCircle;endFill=0;endSize=6;strokeWidth=1;sketch=0;exitX=0;exitY=0.5;exitDx=0;exitDy=0;fontSize=16;" edge="1" parent="1" source="rEIa9SSDzJFT5u2rZajr-3">
          <mxGeometry relative="1" as="geometry">
            <mxPoint x="590" y="195" as="sourcePoint" />
            <mxPoint x="550" y="265" as="targetPoint" />
          </mxGeometry>
        </mxCell>
        <mxCell id="rEIa9SSDzJFT5u2rZajr-12" value="" style="ellipse;whiteSpace=wrap;html=1;align=center;aspect=fixed;resizable=0;points=[];outlineConnect=0;sketch=0;fontSize=16;" vertex="1" parent="1">
          <mxGeometry x="545" y="260" width="10" height="10" as="geometry" />
        </mxCell>
        <mxCell id="rEIa9SSDzJFT5u2rZajr-13" value="" style="rounded=0;orthogonalLoop=1;jettySize=auto;html=1;endArrow=none;endFill=0;sketch=0;sourcePerimeterSpacing=0;targetPerimeterSpacing=0;exitX=1;exitY=0.5;exitDx=0;exitDy=0;fontSize=16;" edge="1" parent="1" source="rEIa9SSDzJFT5u2rZajr-16">
          <mxGeometry relative="1" as="geometry">
            <mxPoint x="290" y="275" as="sourcePoint" />
            <mxPoint x="70" y="265" as="targetPoint" />
          </mxGeometry>
        </mxCell>
        <mxCell id="rEIa9SSDzJFT5u2rZajr-14" value="" style="rounded=0;orthogonalLoop=1;jettySize=auto;html=1;endArrow=halfCircle;endFill=0;endSize=6;strokeWidth=1;sketch=0;exitX=0;exitY=0.5;exitDx=0;exitDy=0;fontSize=16;" edge="1" parent="1" source="rEIa9SSDzJFT5u2rZajr-5">
          <mxGeometry relative="1" as="geometry">
            <mxPoint x="96" y="265" as="sourcePoint" />
            <mxPoint x="76" y="265" as="targetPoint" />
          </mxGeometry>
        </mxCell>
        <mxCell id="rEIa9SSDzJFT5u2rZajr-15" value="" style="rounded=0;orthogonalLoop=1;jettySize=auto;html=1;endArrow=none;endFill=0;sketch=0;sourcePerimeterSpacing=0;targetPerimeterSpacing=0;exitX=1;exitY=0.5;exitDx=0;exitDy=0;fontSize=16;" edge="1" parent="1" target="rEIa9SSDzJFT5u2rZajr-16">
          <mxGeometry relative="1" as="geometry">
            <mxPoint x="40" y="265" as="sourcePoint" />
            <mxPoint x="70" y="265" as="targetPoint" />
          </mxGeometry>
        </mxCell>
        <mxCell id="rEIa9SSDzJFT5u2rZajr-16" value="" style="ellipse;whiteSpace=wrap;html=1;align=center;aspect=fixed;resizable=0;points=[];outlineConnect=0;sketch=0;fontSize=16;" vertex="1" parent="1">
          <mxGeometry x="70" y="260" width="10" height="10" as="geometry" />
        </mxCell>
        <mxCell id="rEIa9SSDzJFT5u2rZajr-17" value="&amp;lt;&amp;lt;Компонент&amp;gt;&amp;gt;&amp;nbsp;&lt;br style=&quot;font-size: 16px;&quot;&gt;&lt;b style=&quot;font-size: 16px;&quot;&gt;База данных&lt;/b&gt;" style="html=1;dropTarget=0;fontSize=16;" vertex="1" parent="1">
          <mxGeometry x="-140" y="220" width="180" height="90" as="geometry" />
        </mxCell>
        <mxCell id="rEIa9SSDzJFT5u2rZajr-18" value="" style="shape=module;jettyWidth=8;jettyHeight=4;fontSize=16;" vertex="1" parent="rEIa9SSDzJFT5u2rZajr-17">
          <mxGeometry x="1" width="20" height="20" relative="1" as="geometry">
            <mxPoint x="-27" y="7" as="offset" />
          </mxGeometry>
        </mxCell>
      </root>
    </mxGraphModel>
  </diagram>
  <diagram id="xkWkvDLXCnI8m4jJGT40" name="interface">
    <mxGraphModel grid="1" page="1" gridSize="10" guides="1" tooltips="1" connect="1" arrows="1" fold="1" pageScale="1" pageWidth="827" pageHeight="1169" math="0" shadow="0">
      <root>
        <mxCell id="0" />
        <mxCell id="1" parent="0" />
        <mxCell id="7JneUEGtghIsljzZj_Ws-1" value="ConsoleInterface" style="swimlane;fontStyle=1;align=center;verticalAlign=top;childLayout=stackLayout;horizontal=1;startSize=26;horizontalStack=0;resizeParent=1;resizeParentMax=0;resizeLast=0;collapsible=1;marginBottom=0;whiteSpace=wrap;html=1;fontSize=16;" vertex="1" parent="1">
          <mxGeometry x="220" y="100" width="350" height="268" as="geometry" />
        </mxCell>
        <mxCell id="7JneUEGtghIsljzZj_Ws-2" value="- facade: BLFacade" style="text;strokeColor=none;fillColor=none;align=left;verticalAlign=top;spacingLeft=4;spacingRight=4;overflow=hidden;rotatable=0;points=[[0,0.5],[1,0.5]];portConstraint=eastwest;whiteSpace=wrap;html=1;fontSize=16;" vertex="1" parent="7JneUEGtghIsljzZj_Ws-1">
          <mxGeometry y="26" width="350" height="26" as="geometry" />
        </mxCell>
        <mxCell id="7JneUEGtghIsljzZj_Ws-3" value="" style="line;strokeWidth=1;fillColor=none;align=left;verticalAlign=middle;spacingTop=-1;spacingLeft=3;spacingRight=3;rotatable=0;labelPosition=right;points=[];portConstraint=eastwest;strokeColor=inherit;fontSize=16;" vertex="1" parent="7JneUEGtghIsljzZj_Ws-1">
          <mxGeometry y="52" width="350" height="8" as="geometry" />
        </mxCell>
        <mxCell id="7JneUEGtghIsljzZj_Ws-4" value="+ Run(void):void" style="text;strokeColor=none;fillColor=none;align=left;verticalAlign=top;spacingLeft=4;spacingRight=4;overflow=hidden;rotatable=0;points=[[0,0.5],[1,0.5]];portConstraint=eastwest;whiteSpace=wrap;html=1;fontSize=16;" vertex="1" parent="7JneUEGtghIsljzZj_Ws-1">
          <mxGeometry y="60" width="350" height="26" as="geometry" />
        </mxCell>
        <mxCell id="7JneUEGtghIsljzZj_Ws-5" value="- Login(void): (string, Account)" style="text;strokeColor=none;fillColor=none;align=left;verticalAlign=top;spacingLeft=4;spacingRight=4;overflow=hidden;rotatable=0;points=[[0,0.5],[1,0.5]];portConstraint=eastwest;whiteSpace=wrap;html=1;fontSize=16;" vertex="1" parent="7JneUEGtghIsljzZj_Ws-1">
          <mxGeometry y="86" width="350" height="26" as="geometry" />
        </mxCell>
        <mxCell id="7JneUEGtghIsljzZj_Ws-6" value="- Registration(void): Boolean" style="text;strokeColor=none;fillColor=none;align=left;verticalAlign=top;spacingLeft=4;spacingRight=4;overflow=hidden;rotatable=0;points=[[0,0.5],[1,0.5]];portConstraint=eastwest;whiteSpace=wrap;html=1;fontSize=16;" vertex="1" parent="7JneUEGtghIsljzZj_Ws-1">
          <mxGeometry y="112" width="350" height="26" as="geometry" />
        </mxCell>
        <mxCell id="7JneUEGtghIsljzZj_Ws-7" value="- HRAccount(HRAccount): void" style="text;strokeColor=none;fillColor=none;align=left;verticalAlign=top;spacingLeft=4;spacingRight=4;overflow=hidden;rotatable=0;points=[[0,0.5],[1,0.5]];portConstraint=eastwest;whiteSpace=wrap;html=1;fontSize=16;" vertex="1" parent="7JneUEGtghIsljzZj_Ws-1">
          <mxGeometry y="138" width="350" height="26" as="geometry" />
        </mxCell>
        <mxCell id="7JneUEGtghIsljzZj_Ws-8" value="- EmploeeAccount(EmploeeAccount): void" style="text;strokeColor=none;fillColor=none;align=left;verticalAlign=top;spacingLeft=4;spacingRight=4;overflow=hidden;rotatable=0;points=[[0,0.5],[1,0.5]];portConstraint=eastwest;whiteSpace=wrap;html=1;fontSize=16;" vertex="1" parent="7JneUEGtghIsljzZj_Ws-1">
          <mxGeometry y="164" width="350" height="26" as="geometry" />
        </mxCell>
        <mxCell id="7JneUEGtghIsljzZj_Ws-9" value="- PrintMainMenu(void): void" style="text;strokeColor=none;fillColor=none;align=left;verticalAlign=top;spacingLeft=4;spacingRight=4;overflow=hidden;rotatable=0;points=[[0,0.5],[1,0.5]];portConstraint=eastwest;whiteSpace=wrap;html=1;fontSize=16;" vertex="1" parent="7JneUEGtghIsljzZj_Ws-1">
          <mxGeometry y="190" width="350" height="26" as="geometry" />
        </mxCell>
        <mxCell id="7JneUEGtghIsljzZj_Ws-12" value="- PrintHRAccountMenu(void): void" style="text;strokeColor=none;fillColor=none;align=left;verticalAlign=top;spacingLeft=4;spacingRight=4;overflow=hidden;rotatable=0;points=[[0,0.5],[1,0.5]];portConstraint=eastwest;whiteSpace=wrap;html=1;fontSize=16;" vertex="1" parent="7JneUEGtghIsljzZj_Ws-1">
          <mxGeometry y="216" width="350" height="26" as="geometry" />
        </mxCell>
        <mxCell id="7JneUEGtghIsljzZj_Ws-13" value="- PrintEmploeeAccountMenu(void): void" style="text;strokeColor=none;fillColor=none;align=left;verticalAlign=top;spacingLeft=4;spacingRight=4;overflow=hidden;rotatable=0;points=[[0,0.5],[1,0.5]];portConstraint=eastwest;whiteSpace=wrap;html=1;fontSize=16;" vertex="1" parent="7JneUEGtghIsljzZj_Ws-1">
          <mxGeometry y="242" width="350" height="26" as="geometry" />
        </mxCell>
      </root>
    </mxGraphModel>
  </diagram>
  <diagram id="xLZ4_Sf0TRZAwAOdZm6t" name="BL">
    <mxGraphModel grid="1" page="1" gridSize="10" guides="1" tooltips="1" connect="1" arrows="1" fold="1" pageScale="1" pageWidth="827" pageHeight="1169" math="0" shadow="0">
      <root>
        <mxCell id="0" />
        <mxCell id="1" parent="0" />
        <mxCell id="x05LvkM2Op9WlxlxT10D-1" value="BLFacade" style="swimlane;fontStyle=1;align=center;verticalAlign=top;childLayout=stackLayout;horizontal=1;startSize=26;horizontalStack=0;resizeParent=1;resizeParentMax=0;resizeLast=0;collapsible=1;marginBottom=0;whiteSpace=wrap;html=1;fontSize=16;" vertex="1" parent="1">
          <mxGeometry x="220" y="100" width="500" height="320" as="geometry" />
        </mxCell>
        <mxCell id="x05LvkM2Op9WlxlxT10D-2" value="- empRepo: EmploeeAccountRepository" style="text;strokeColor=none;fillColor=none;align=left;verticalAlign=top;spacingLeft=4;spacingRight=4;overflow=hidden;rotatable=0;points=[[0,0.5],[1,0.5]];portConstraint=eastwest;whiteSpace=wrap;html=1;fontSize=16;" vertex="1" parent="x05LvkM2Op9WlxlxT10D-1">
          <mxGeometry y="26" width="500" height="26" as="geometry" />
        </mxCell>
        <mxCell id="x05LvkM2Op9WlxlxT10D-12" value="- hrRepo: HRAccountRepository" style="text;strokeColor=none;fillColor=none;align=left;verticalAlign=top;spacingLeft=4;spacingRight=4;overflow=hidden;rotatable=0;points=[[0,0.5],[1,0.5]];portConstraint=eastwest;whiteSpace=wrap;html=1;fontSize=16;" vertex="1" parent="x05LvkM2Op9WlxlxT10D-1">
          <mxGeometry y="52" width="500" height="26" as="geometry" />
        </mxCell>
        <mxCell id="robewX-rlywPV6hLKcF9-1" value="- keysRepo: OrganizationRepository" style="text;strokeColor=none;fillColor=none;align=left;verticalAlign=top;spacingLeft=4;spacingRight=4;overflow=hidden;rotatable=0;points=[[0,0.5],[1,0.5]];portConstraint=eastwest;whiteSpace=wrap;html=1;fontSize=16;" vertex="1" parent="x05LvkM2Op9WlxlxT10D-1">
          <mxGeometry y="78" width="500" height="26" as="geometry" />
        </mxCell>
        <mxCell id="robewX-rlywPV6hLKcF9-2" value="- signature: Signature" style="text;strokeColor=none;fillColor=none;align=left;verticalAlign=top;spacingLeft=4;spacingRight=4;overflow=hidden;rotatable=0;points=[[0,0.5],[1,0.5]];portConstraint=eastwest;whiteSpace=wrap;html=1;fontSize=16;" vertex="1" parent="x05LvkM2Op9WlxlxT10D-1">
          <mxGeometry y="104" width="500" height="26" as="geometry" />
        </mxCell>
        <mxCell id="x05LvkM2Op9WlxlxT10D-3" value="" style="line;strokeWidth=1;fillColor=none;align=left;verticalAlign=middle;spacingTop=-1;spacingLeft=3;spacingRight=3;rotatable=0;labelPosition=right;points=[];portConstraint=eastwest;strokeColor=inherit;fontSize=16;" vertex="1" parent="x05LvkM2Op9WlxlxT10D-1">
          <mxGeometry y="130" width="500" height="8" as="geometry" />
        </mxCell>
        <mxCell id="x05LvkM2Op9WlxlxT10D-5" value="+ Login(string, string): (string, Account)" style="text;strokeColor=none;fillColor=none;align=left;verticalAlign=top;spacingLeft=4;spacingRight=4;overflow=hidden;rotatable=0;points=[[0,0.5],[1,0.5]];portConstraint=eastwest;whiteSpace=wrap;html=1;fontSize=16;" vertex="1" parent="x05LvkM2Op9WlxlxT10D-1">
          <mxGeometry y="138" width="500" height="26" as="geometry" />
        </mxCell>
        <mxCell id="x05LvkM2Op9WlxlxT10D-6" value="+ Registration(void): Boolean" style="text;strokeColor=none;fillColor=none;align=left;verticalAlign=top;spacingLeft=4;spacingRight=4;overflow=hidden;rotatable=0;points=[[0,0.5],[1,0.5]];portConstraint=eastwest;whiteSpace=wrap;html=1;fontSize=16;" vertex="1" parent="x05LvkM2Op9WlxlxT10D-1">
          <mxGeometry y="164" width="500" height="26" as="geometry" />
        </mxCell>
        <mxCell id="x05LvkM2Op9WlxlxT10D-7" value="+ ExistsEmploeeWithLogin(string): Boolean" style="text;strokeColor=none;fillColor=none;align=left;verticalAlign=top;spacingLeft=4;spacingRight=4;overflow=hidden;rotatable=0;points=[[0,0.5],[1,0.5]];portConstraint=eastwest;whiteSpace=wrap;html=1;fontSize=16;" vertex="1" parent="x05LvkM2Op9WlxlxT10D-1">
          <mxGeometry y="190" width="500" height="26" as="geometry" />
        </mxCell>
        <mxCell id="x05LvkM2Op9WlxlxT10D-8" value="+ CreateMedDirection(HRAccount, binary, binary, string): void" style="text;strokeColor=none;fillColor=none;align=left;verticalAlign=top;spacingLeft=4;spacingRight=4;overflow=hidden;rotatable=0;points=[[0,0.5],[1,0.5]];portConstraint=eastwest;whiteSpace=wrap;html=1;fontSize=16;" vertex="1" parent="x05LvkM2Op9WlxlxT10D-1">
          <mxGeometry y="216" width="500" height="26" as="geometry" />
        </mxCell>
        <mxCell id="x05LvkM2Op9WlxlxT10D-9" value="+ GetEmploeesInfo(void): array: EmploeeAccount" style="text;strokeColor=none;fillColor=none;align=left;verticalAlign=top;spacingLeft=4;spacingRight=4;overflow=hidden;rotatable=0;points=[[0,0.5],[1,0.5]];portConstraint=eastwest;whiteSpace=wrap;html=1;fontSize=16;" vertex="1" parent="x05LvkM2Op9WlxlxT10D-1">
          <mxGeometry y="242" width="500" height="26" as="geometry" />
        </mxCell>
        <mxCell id="x05LvkM2Op9WlxlxT10D-10" value="+ GetEmploeeAccount(string, string): EmploeeAccount" style="text;strokeColor=none;fillColor=none;align=left;verticalAlign=top;spacingLeft=4;spacingRight=4;overflow=hidden;rotatable=0;points=[[0,0.5],[1,0.5]];portConstraint=eastwest;whiteSpace=wrap;html=1;fontSize=16;" vertex="1" parent="x05LvkM2Op9WlxlxT10D-1">
          <mxGeometry y="268" width="500" height="26" as="geometry" />
        </mxCell>
        <mxCell id="x05LvkM2Op9WlxlxT10D-11" value="+ CheckMedBook(EnploeeAccount, binary, binary, string): void" style="text;strokeColor=none;fillColor=none;align=left;verticalAlign=top;spacingLeft=4;spacingRight=4;overflow=hidden;rotatable=0;points=[[0,0.5],[1,0.5]];portConstraint=eastwest;whiteSpace=wrap;html=1;fontSize=16;" vertex="1" parent="x05LvkM2Op9WlxlxT10D-1">
          <mxGeometry y="294" width="500" height="26" as="geometry" />
        </mxCell>
        <mxCell id="robewX-rlywPV6hLKcF9-20" value="Account" style="swimlane;fontStyle=1;align=center;verticalAlign=top;childLayout=stackLayout;horizontal=1;startSize=26;horizontalStack=0;resizeParent=1;resizeParentMax=0;resizeLast=0;collapsible=1;marginBottom=0;whiteSpace=wrap;html=1;fontSize=16;" vertex="1" parent="1">
          <mxGeometry x="200" y="950" width="214" height="164" as="geometry" />
        </mxCell>
        <mxCell id="robewX-rlywPV6hLKcF9-21" value="- id: int" style="text;strokeColor=none;fillColor=none;align=left;verticalAlign=top;spacingLeft=4;spacingRight=4;overflow=hidden;rotatable=0;points=[[0,0.5],[1,0.5]];portConstraint=eastwest;whiteSpace=wrap;html=1;fontSize=16;" vertex="1" parent="robewX-rlywPV6hLKcF9-20">
          <mxGeometry y="26" width="214" height="26" as="geometry" />
        </mxCell>
        <mxCell id="robewX-rlywPV6hLKcF9-24" value="- login: string" style="text;strokeColor=none;fillColor=none;align=left;verticalAlign=top;spacingLeft=4;spacingRight=4;overflow=hidden;rotatable=0;points=[[0,0.5],[1,0.5]];portConstraint=eastwest;whiteSpace=wrap;html=1;fontSize=16;" vertex="1" parent="robewX-rlywPV6hLKcF9-20">
          <mxGeometry y="52" width="214" height="26" as="geometry" />
        </mxCell>
        <mxCell id="robewX-rlywPV6hLKcF9-25" value="- password: string" style="text;strokeColor=none;fillColor=none;align=left;verticalAlign=top;spacingLeft=4;spacingRight=4;overflow=hidden;rotatable=0;points=[[0,0.5],[1,0.5]];portConstraint=eastwest;whiteSpace=wrap;html=1;fontSize=16;" vertex="1" parent="robewX-rlywPV6hLKcF9-20">
          <mxGeometry y="78" width="214" height="26" as="geometry" />
        </mxCell>
        <mxCell id="robewX-rlywPV6hLKcF9-22" value="" style="line;strokeWidth=1;fillColor=none;align=left;verticalAlign=middle;spacingTop=-1;spacingLeft=3;spacingRight=3;rotatable=0;labelPosition=right;points=[];portConstraint=eastwest;strokeColor=inherit;fontSize=16;" vertex="1" parent="robewX-rlywPV6hLKcF9-20">
          <mxGeometry y="104" width="214" height="8" as="geometry" />
        </mxCell>
        <mxCell id="robewX-rlywPV6hLKcF9-23" value="+ GetLogin(): string" style="text;strokeColor=none;fillColor=none;align=left;verticalAlign=top;spacingLeft=4;spacingRight=4;overflow=hidden;rotatable=0;points=[[0,0.5],[1,0.5]];portConstraint=eastwest;whiteSpace=wrap;html=1;fontSize=16;" vertex="1" parent="robewX-rlywPV6hLKcF9-20">
          <mxGeometry y="112" width="214" height="26" as="geometry" />
        </mxCell>
        <mxCell id="robewX-rlywPV6hLKcF9-26" value="+ GetPassword(): string" style="text;strokeColor=none;fillColor=none;align=left;verticalAlign=top;spacingLeft=4;spacingRight=4;overflow=hidden;rotatable=0;points=[[0,0.5],[1,0.5]];portConstraint=eastwest;whiteSpace=wrap;html=1;fontSize=16;" vertex="1" parent="robewX-rlywPV6hLKcF9-20">
          <mxGeometry y="138" width="214" height="26" as="geometry" />
        </mxCell>
        <mxCell id="robewX-rlywPV6hLKcF9-27" value="EmploeeAccount" style="swimlane;fontStyle=1;align=center;verticalAlign=top;childLayout=stackLayout;horizontal=1;startSize=26;horizontalStack=0;resizeParent=1;resizeParentMax=0;resizeLast=0;collapsible=1;marginBottom=0;whiteSpace=wrap;html=1;fontSize=16;" vertex="1" parent="1">
          <mxGeometry x="410" y="520" width="280" height="320" as="geometry" />
        </mxCell>
        <mxCell id="robewX-rlywPV6hLKcF9-28" value="- account: Account" style="text;strokeColor=none;fillColor=none;align=left;verticalAlign=top;spacingLeft=4;spacingRight=4;overflow=hidden;rotatable=0;points=[[0,0.5],[1,0.5]];portConstraint=eastwest;whiteSpace=wrap;html=1;fontSize=16;" vertex="1" parent="robewX-rlywPV6hLKcF9-27">
          <mxGeometry y="26" width="280" height="26" as="geometry" />
        </mxCell>
        <mxCell id="robewX-rlywPV6hLKcF9-29" value="- dateOfMedBookExp: string" style="text;strokeColor=none;fillColor=none;align=left;verticalAlign=top;spacingLeft=4;spacingRight=4;overflow=hidden;rotatable=0;points=[[0,0.5],[1,0.5]];portConstraint=eastwest;whiteSpace=wrap;html=1;fontSize=16;" vertex="1" parent="robewX-rlywPV6hLKcF9-27">
          <mxGeometry y="52" width="280" height="26" as="geometry" />
        </mxCell>
        <mxCell id="robewX-rlywPV6hLKcF9-30" value="- expDateMedDirection: string" style="text;strokeColor=none;fillColor=none;align=left;verticalAlign=top;spacingLeft=4;spacingRight=4;overflow=hidden;rotatable=0;points=[[0,0.5],[1,0.5]];portConstraint=eastwest;whiteSpace=wrap;html=1;fontSize=16;" vertex="1" parent="robewX-rlywPV6hLKcF9-27">
          <mxGeometry y="78" width="280" height="26" as="geometry" />
        </mxCell>
        <mxCell id="robewX-rlywPV6hLKcF9-34" value="- certMedDirection: binary" style="text;strokeColor=none;fillColor=none;align=left;verticalAlign=top;spacingLeft=4;spacingRight=4;overflow=hidden;rotatable=0;points=[[0,0.5],[1,0.5]];portConstraint=eastwest;whiteSpace=wrap;html=1;fontSize=16;" vertex="1" parent="robewX-rlywPV6hLKcF9-27">
          <mxGeometry y="104" width="280" height="26" as="geometry" />
        </mxCell>
        <mxCell id="robewX-rlywPV6hLKcF9-35" value="- certMedBook: binary" style="text;strokeColor=none;fillColor=none;align=left;verticalAlign=top;spacingLeft=4;spacingRight=4;overflow=hidden;rotatable=0;points=[[0,0.5],[1,0.5]];portConstraint=eastwest;whiteSpace=wrap;html=1;fontSize=16;" vertex="1" parent="robewX-rlywPV6hLKcF9-27">
          <mxGeometry y="130" width="280" height="26" as="geometry" />
        </mxCell>
        <mxCell id="robewX-rlywPV6hLKcF9-36" value="- MedDirection: binary" style="text;strokeColor=none;fillColor=none;align=left;verticalAlign=top;spacingLeft=4;spacingRight=4;overflow=hidden;rotatable=0;points=[[0,0.5],[1,0.5]];portConstraint=eastwest;whiteSpace=wrap;html=1;fontSize=16;" vertex="1" parent="robewX-rlywPV6hLKcF9-27">
          <mxGeometry y="156" width="280" height="26" as="geometry" />
        </mxCell>
        <mxCell id="robewX-rlywPV6hLKcF9-37" value="- MedBook: binary" style="text;strokeColor=none;fillColor=none;align=left;verticalAlign=top;spacingLeft=4;spacingRight=4;overflow=hidden;rotatable=0;points=[[0,0.5],[1,0.5]];portConstraint=eastwest;whiteSpace=wrap;html=1;fontSize=16;" vertex="1" parent="robewX-rlywPV6hLKcF9-27">
          <mxGeometry y="182" width="280" height="26" as="geometry" />
        </mxCell>
        <mxCell id="robewX-rlywPV6hLKcF9-31" value="" style="line;strokeWidth=1;fillColor=none;align=left;verticalAlign=middle;spacingTop=-1;spacingLeft=3;spacingRight=3;rotatable=0;labelPosition=right;points=[];portConstraint=eastwest;strokeColor=inherit;fontSize=16;" vertex="1" parent="robewX-rlywPV6hLKcF9-27">
          <mxGeometry y="208" width="280" height="8" as="geometry" />
        </mxCell>
        <mxCell id="robewX-rlywPV6hLKcF9-32" value="+ GetAccount(): Account" style="text;strokeColor=none;fillColor=none;align=left;verticalAlign=top;spacingLeft=4;spacingRight=4;overflow=hidden;rotatable=0;points=[[0,0.5],[1,0.5]];portConstraint=eastwest;whiteSpace=wrap;html=1;fontSize=16;" vertex="1" parent="robewX-rlywPV6hLKcF9-27">
          <mxGeometry y="216" width="280" height="26" as="geometry" />
        </mxCell>
        <mxCell id="robewX-rlywPV6hLKcF9-33" value="+ GetDateOfMedBookExp(): string" style="text;strokeColor=none;fillColor=none;align=left;verticalAlign=top;spacingLeft=4;spacingRight=4;overflow=hidden;rotatable=0;points=[[0,0.5],[1,0.5]];portConstraint=eastwest;whiteSpace=wrap;html=1;fontSize=16;" vertex="1" parent="robewX-rlywPV6hLKcF9-27">
          <mxGeometry y="242" width="280" height="26" as="geometry" />
        </mxCell>
        <mxCell id="robewX-rlywPV6hLKcF9-38" value="+ GetExpDateMedDirection(): string" style="text;strokeColor=none;fillColor=none;align=left;verticalAlign=top;spacingLeft=4;spacingRight=4;overflow=hidden;rotatable=0;points=[[0,0.5],[1,0.5]];portConstraint=eastwest;whiteSpace=wrap;html=1;fontSize=16;" vertex="1" parent="robewX-rlywPV6hLKcF9-27">
          <mxGeometry y="268" width="280" height="26" as="geometry" />
        </mxCell>
        <mxCell id="robewX-rlywPV6hLKcF9-39" value="+ GetMedDirection(): string" style="text;strokeColor=none;fillColor=none;align=left;verticalAlign=top;spacingLeft=4;spacingRight=4;overflow=hidden;rotatable=0;points=[[0,0.5],[1,0.5]];portConstraint=eastwest;whiteSpace=wrap;html=1;fontSize=16;" vertex="1" parent="robewX-rlywPV6hLKcF9-27">
          <mxGeometry y="294" width="280" height="26" as="geometry" />
        </mxCell>
        <mxCell id="robewX-rlywPV6hLKcF9-40" value="HRAccount" style="swimlane;fontStyle=1;align=center;verticalAlign=top;childLayout=stackLayout;horizontal=1;startSize=26;horizontalStack=0;resizeParent=1;resizeParentMax=0;resizeLast=0;collapsible=1;marginBottom=0;whiteSpace=wrap;html=1;fontSize=16;" vertex="1" parent="1">
          <mxGeometry x="60" y="560" width="280" height="112" as="geometry" />
        </mxCell>
        <mxCell id="robewX-rlywPV6hLKcF9-41" value="- account: Account" style="text;strokeColor=none;fillColor=none;align=left;verticalAlign=top;spacingLeft=4;spacingRight=4;overflow=hidden;rotatable=0;points=[[0,0.5],[1,0.5]];portConstraint=eastwest;whiteSpace=wrap;html=1;fontSize=16;" vertex="1" parent="robewX-rlywPV6hLKcF9-40">
          <mxGeometry y="26" width="280" height="26" as="geometry" />
        </mxCell>
        <mxCell id="robewX-rlywPV6hLKcF9-47" value="- private_key: string" style="text;strokeColor=none;fillColor=none;align=left;verticalAlign=top;spacingLeft=4;spacingRight=4;overflow=hidden;rotatable=0;points=[[0,0.5],[1,0.5]];portConstraint=eastwest;whiteSpace=wrap;html=1;fontSize=16;" vertex="1" parent="robewX-rlywPV6hLKcF9-40">
          <mxGeometry y="52" width="280" height="26" as="geometry" />
        </mxCell>
        <mxCell id="robewX-rlywPV6hLKcF9-48" value="" style="line;strokeWidth=1;fillColor=none;align=left;verticalAlign=middle;spacingTop=-1;spacingLeft=3;spacingRight=3;rotatable=0;labelPosition=right;points=[];portConstraint=eastwest;strokeColor=inherit;fontSize=16;" vertex="1" parent="robewX-rlywPV6hLKcF9-40">
          <mxGeometry y="78" width="280" height="8" as="geometry" />
        </mxCell>
        <mxCell id="robewX-rlywPV6hLKcF9-49" value="+ GetPrivateKey(): string" style="text;strokeColor=none;fillColor=none;align=left;verticalAlign=top;spacingLeft=4;spacingRight=4;overflow=hidden;rotatable=0;points=[[0,0.5],[1,0.5]];portConstraint=eastwest;whiteSpace=wrap;html=1;fontSize=16;" vertex="1" parent="robewX-rlywPV6hLKcF9-40">
          <mxGeometry y="86" width="280" height="26" as="geometry" />
        </mxCell>
        <mxCell id="robewX-rlywPV6hLKcF9-53" value="Signature" style="swimlane;fontStyle=1;align=center;verticalAlign=top;childLayout=stackLayout;horizontal=1;startSize=26;horizontalStack=0;resizeParent=1;resizeParentMax=0;resizeLast=0;collapsible=1;marginBottom=0;whiteSpace=wrap;html=1;fontSize=16;" vertex="1" parent="1">
          <mxGeometry x="800" y="473" width="380" height="112" as="geometry" />
        </mxCell>
        <mxCell id="robewX-rlywPV6hLKcF9-55" value="" style="line;strokeWidth=1;fillColor=none;align=left;verticalAlign=middle;spacingTop=-1;spacingLeft=3;spacingRight=3;rotatable=0;labelPosition=right;points=[];portConstraint=eastwest;strokeColor=inherit;fontSize=16;" vertex="1" parent="robewX-rlywPV6hLKcF9-53">
          <mxGeometry y="26" width="380" height="8" as="geometry" />
        </mxCell>
        <mxCell id="robewX-rlywPV6hLKcF9-56" value="+ GenerateKeys(void): (string, string)" style="text;strokeColor=none;fillColor=none;align=left;verticalAlign=top;spacingLeft=4;spacingRight=4;overflow=hidden;rotatable=0;points=[[0,0.5],[1,0.5]];portConstraint=eastwest;whiteSpace=wrap;html=1;fontSize=16;" vertex="1" parent="robewX-rlywPV6hLKcF9-53">
          <mxGeometry y="34" width="380" height="26" as="geometry" />
        </mxCell>
        <mxCell id="robewX-rlywPV6hLKcF9-57" value="+ sign(binary, string): binary" style="text;strokeColor=none;fillColor=none;align=left;verticalAlign=top;spacingLeft=4;spacingRight=4;overflow=hidden;rotatable=0;points=[[0,0.5],[1,0.5]];portConstraint=eastwest;whiteSpace=wrap;html=1;fontSize=16;" vertex="1" parent="robewX-rlywPV6hLKcF9-53">
          <mxGeometry y="60" width="380" height="26" as="geometry" />
        </mxCell>
        <mxCell id="robewX-rlywPV6hLKcF9-58" value="+ check(binary, binary, string): Boolean" style="text;strokeColor=none;fillColor=none;align=left;verticalAlign=top;spacingLeft=4;spacingRight=4;overflow=hidden;rotatable=0;points=[[0,0.5],[1,0.5]];portConstraint=eastwest;whiteSpace=wrap;html=1;fontSize=16;" vertex="1" parent="robewX-rlywPV6hLKcF9-53">
          <mxGeometry y="86" width="380" height="26" as="geometry" />
        </mxCell>
        <mxCell id="robewX-rlywPV6hLKcF9-59" value="" style="endArrow=diamondThin;endFill=1;endSize=24;html=1;rounded=0;entryX=0.516;entryY=1.105;entryDx=0;entryDy=0;exitX=0.5;exitY=0;exitDx=0;exitDy=0;entryPerimeter=0;fontSize=16;" edge="1" parent="1" source="robewX-rlywPV6hLKcF9-20" target="robewX-rlywPV6hLKcF9-39">
          <mxGeometry width="160" relative="1" as="geometry">
            <mxPoint x="710" y="440" as="sourcePoint" />
            <mxPoint x="890" y="340" as="targetPoint" />
          </mxGeometry>
        </mxCell>
        <mxCell id="robewX-rlywPV6hLKcF9-61" value="" style="endArrow=open;endSize=12;dashed=1;html=1;rounded=0;exitX=0.766;exitY=1.21;exitDx=0;exitDy=0;entryX=0.5;entryY=0;entryDx=0;entryDy=0;exitPerimeter=0;fontSize=16;" edge="1" parent="1" source="x05LvkM2Op9WlxlxT10D-11" target="robewX-rlywPV6hLKcF9-53">
          <mxGeometry width="160" relative="1" as="geometry">
            <mxPoint x="730" y="500" as="sourcePoint" />
            <mxPoint x="890" y="500" as="targetPoint" />
          </mxGeometry>
        </mxCell>
        <mxCell id="robewX-rlywPV6hLKcF9-64" value="" style="endArrow=open;endSize=12;dashed=1;html=1;rounded=0;exitX=0.599;exitY=1.07;exitDx=0;exitDy=0;entryX=0.5;entryY=0;entryDx=0;entryDy=0;exitPerimeter=0;fontSize=16;" edge="1" parent="1" source="x05LvkM2Op9WlxlxT10D-11" target="robewX-rlywPV6hLKcF9-27">
          <mxGeometry width="160" relative="1" as="geometry">
            <mxPoint x="600" y="287" as="sourcePoint" />
            <mxPoint x="1120" y="483" as="targetPoint" />
          </mxGeometry>
        </mxCell>
        <mxCell id="robewX-rlywPV6hLKcF9-65" value="" style="endArrow=open;endSize=12;dashed=1;html=1;rounded=0;exitX=0.029;exitY=1.42;exitDx=0;exitDy=0;entryX=0.5;entryY=0;entryDx=0;entryDy=0;exitPerimeter=0;fontSize=16;" edge="1" parent="1" source="x05LvkM2Op9WlxlxT10D-11" target="robewX-rlywPV6hLKcF9-40">
          <mxGeometry width="160" relative="1" as="geometry">
            <mxPoint x="452" y="432" as="sourcePoint" />
            <mxPoint x="570" y="560" as="targetPoint" />
          </mxGeometry>
        </mxCell>
        <mxCell id="robewX-rlywPV6hLKcF9-66" value="" style="endArrow=diamondThin;endFill=1;endSize=24;html=1;rounded=0;entryX=0.446;entryY=1.404;entryDx=0;entryDy=0;exitX=0.25;exitY=0;exitDx=0;exitDy=0;entryPerimeter=0;fontSize=16;" edge="1" parent="1" source="robewX-rlywPV6hLKcF9-20" target="robewX-rlywPV6hLKcF9-49">
          <mxGeometry width="160" relative="1" as="geometry">
            <mxPoint x="344" y="960" as="sourcePoint" />
            <mxPoint x="544" y="893" as="targetPoint" />
          </mxGeometry>
        </mxCell>
      </root>
    </mxGraphModel>
  </diagram>
  <diagram id="1xxs-mF5AAKJHQt-Hq-y" name="DA">
    <mxGraphModel grid="1" page="1" gridSize="10" guides="1" tooltips="1" connect="1" arrows="1" fold="1" pageScale="1" pageWidth="827" pageHeight="1169" math="0" shadow="0">
      <root>
        <mxCell id="0" />
        <mxCell id="1" parent="0" />
        <mxCell id="NiTf8S2FCoUwtwol3MNj-1" value="EmploeeAccountRepository" style="swimlane;fontStyle=1;align=center;verticalAlign=top;childLayout=stackLayout;horizontal=1;startSize=26;horizontalStack=0;resizeParent=1;resizeParentMax=0;resizeLast=0;collapsible=1;marginBottom=0;whiteSpace=wrap;html=1;fontSize=16;" vertex="1" parent="1">
          <mxGeometry x="150" y="390" width="450" height="216" as="geometry" />
        </mxCell>
        <mxCell id="NiTf8S2FCoUwtwol3MNj-9" value="" style="line;strokeWidth=1;fillColor=none;align=left;verticalAlign=middle;spacingTop=-1;spacingLeft=3;spacingRight=3;rotatable=0;labelPosition=right;points=[];portConstraint=eastwest;strokeColor=inherit;fontSize=16;" vertex="1" parent="NiTf8S2FCoUwtwol3MNj-1">
          <mxGeometry y="26" width="450" height="8" as="geometry" />
        </mxCell>
        <mxCell id="NiTf8S2FCoUwtwol3MNj-10" value="+ ExistsEmploeeWithLogin(string): Boolean" style="text;strokeColor=none;fillColor=none;align=left;verticalAlign=top;spacingLeft=4;spacingRight=4;overflow=hidden;rotatable=0;points=[[0,0.5],[1,0.5]];portConstraint=eastwest;whiteSpace=wrap;html=1;fontSize=16;" vertex="1" parent="NiTf8S2FCoUwtwol3MNj-1">
          <mxGeometry y="34" width="450" height="26" as="geometry" />
        </mxCell>
        <mxCell id="NiTf8S2FCoUwtwol3MNj-11" value="+ GetEmploeeAccount(string, string): EmploeeAccount" style="text;strokeColor=none;fillColor=none;align=left;verticalAlign=top;spacingLeft=4;spacingRight=4;overflow=hidden;rotatable=0;points=[[0,0.5],[1,0.5]];portConstraint=eastwest;whiteSpace=wrap;html=1;fontSize=16;" vertex="1" parent="NiTf8S2FCoUwtwol3MNj-1">
          <mxGeometry y="60" width="450" height="26" as="geometry" />
        </mxCell>
        <mxCell id="NiTf8S2FCoUwtwol3MNj-12" value="+ CreateAccount(string, string): void" style="text;strokeColor=none;fillColor=none;align=left;verticalAlign=top;spacingLeft=4;spacingRight=4;overflow=hidden;rotatable=0;points=[[0,0.5],[1,0.5]];portConstraint=eastwest;whiteSpace=wrap;html=1;fontSize=16;" vertex="1" parent="NiTf8S2FCoUwtwol3MNj-1">
          <mxGeometry y="86" width="450" height="26" as="geometry" />
        </mxCell>
        <mxCell id="NiTf8S2FCoUwtwol3MNj-13" value="+ UploadDirection(string, string, binary, binary): void" style="text;strokeColor=none;fillColor=none;align=left;verticalAlign=top;spacingLeft=4;spacingRight=4;overflow=hidden;rotatable=0;points=[[0,0.5],[1,0.5]];portConstraint=eastwest;whiteSpace=wrap;html=1;fontSize=16;" vertex="1" parent="NiTf8S2FCoUwtwol3MNj-1">
          <mxGeometry y="112" width="450" height="26" as="geometry" />
        </mxCell>
        <mxCell id="3c7KKb2Yweu54N3eVt0o-1" value="- UpdateDirections(void): void" style="text;strokeColor=none;fillColor=none;align=left;verticalAlign=top;spacingLeft=4;spacingRight=4;overflow=hidden;rotatable=0;points=[[0,0.5],[1,0.5]];portConstraint=eastwest;whiteSpace=wrap;html=1;fontSize=16;" vertex="1" parent="NiTf8S2FCoUwtwol3MNj-1">
          <mxGeometry y="138" width="450" height="26" as="geometry" />
        </mxCell>
        <mxCell id="3c7KKb2Yweu54N3eVt0o-2" value="- UpdateMedBooks(void): void" style="text;strokeColor=none;fillColor=none;align=left;verticalAlign=top;spacingLeft=4;spacingRight=4;overflow=hidden;rotatable=0;points=[[0,0.5],[1,0.5]];portConstraint=eastwest;whiteSpace=wrap;html=1;fontSize=16;" vertex="1" parent="NiTf8S2FCoUwtwol3MNj-1">
          <mxGeometry y="164" width="450" height="26" as="geometry" />
        </mxCell>
        <mxCell id="3c7KKb2Yweu54N3eVt0o-3" value="+ GetEmploeesInfo(void): array: EmploeeAccount" style="text;strokeColor=none;fillColor=none;align=left;verticalAlign=top;spacingLeft=4;spacingRight=4;overflow=hidden;rotatable=0;points=[[0,0.5],[1,0.5]];portConstraint=eastwest;whiteSpace=wrap;html=1;fontSize=16;" vertex="1" parent="NiTf8S2FCoUwtwol3MNj-1">
          <mxGeometry y="190" width="450" height="26" as="geometry" />
        </mxCell>
        <mxCell id="a_37BzlgmXQrCf8pWKtF-1" value="HRAccountRepository" style="swimlane;fontStyle=1;align=center;verticalAlign=top;childLayout=stackLayout;horizontal=1;startSize=26;horizontalStack=0;resizeParent=1;resizeParentMax=0;resizeLast=0;collapsible=1;marginBottom=0;whiteSpace=wrap;html=1;fontSize=16;" vertex="1" parent="1">
          <mxGeometry x="650" y="390" width="380" height="86" as="geometry" />
        </mxCell>
        <mxCell id="a_37BzlgmXQrCf8pWKtF-2" value="" style="line;strokeWidth=1;fillColor=none;align=left;verticalAlign=middle;spacingTop=-1;spacingLeft=3;spacingRight=3;rotatable=0;labelPosition=right;points=[];portConstraint=eastwest;strokeColor=inherit;fontSize=16;" vertex="1" parent="a_37BzlgmXQrCf8pWKtF-1">
          <mxGeometry y="26" width="380" height="8" as="geometry" />
        </mxCell>
        <mxCell id="a_37BzlgmXQrCf8pWKtF-3" value="+ GetHRAccount(string, string): HRAccount" style="text;strokeColor=none;fillColor=none;align=left;verticalAlign=top;spacingLeft=4;spacingRight=4;overflow=hidden;rotatable=0;points=[[0,0.5],[1,0.5]];portConstraint=eastwest;whiteSpace=wrap;html=1;fontSize=16;" vertex="1" parent="a_37BzlgmXQrCf8pWKtF-1">
          <mxGeometry y="34" width="380" height="26" as="geometry" />
        </mxCell>
        <mxCell id="a_37BzlgmXQrCf8pWKtF-4" value="+ CreateAccount(string, string): void" style="text;strokeColor=none;fillColor=none;align=left;verticalAlign=top;spacingLeft=4;spacingRight=4;overflow=hidden;rotatable=0;points=[[0,0.5],[1,0.5]];portConstraint=eastwest;whiteSpace=wrap;html=1;fontSize=16;" vertex="1" parent="a_37BzlgmXQrCf8pWKtF-1">
          <mxGeometry y="60" width="380" height="26" as="geometry" />
        </mxCell>
        <mxCell id="a_37BzlgmXQrCf8pWKtF-10" value="OrganizationRepository" style="swimlane;fontStyle=1;align=center;verticalAlign=top;childLayout=stackLayout;horizontal=1;startSize=26;horizontalStack=0;resizeParent=1;resizeParentMax=0;resizeLast=0;collapsible=1;marginBottom=0;whiteSpace=wrap;html=1;fontSize=16;" vertex="1" parent="1">
          <mxGeometry x="740" y="546" width="240" height="60" as="geometry" />
        </mxCell>
        <mxCell id="a_37BzlgmXQrCf8pWKtF-12" value="" style="line;strokeWidth=1;fillColor=none;align=left;verticalAlign=middle;spacingTop=-1;spacingLeft=3;spacingRight=3;rotatable=0;labelPosition=right;points=[];portConstraint=eastwest;strokeColor=inherit;fontSize=16;" vertex="1" parent="a_37BzlgmXQrCf8pWKtF-10">
          <mxGeometry y="26" width="240" height="8" as="geometry" />
        </mxCell>
        <mxCell id="a_37BzlgmXQrCf8pWKtF-13" value="+ GetKeys(void): array: string" style="text;strokeColor=none;fillColor=none;align=left;verticalAlign=top;spacingLeft=4;spacingRight=4;overflow=hidden;rotatable=0;points=[[0,0.5],[1,0.5]];portConstraint=eastwest;whiteSpace=wrap;html=1;fontSize=16;" vertex="1" parent="a_37BzlgmXQrCf8pWKtF-10">
          <mxGeometry y="34" width="240" height="26" as="geometry" />
        </mxCell>
      </root>
    </mxGraphModel>
  </diagram>
</mxfile>
